<?xml version="1.0" encoding="UTF-8"?>
<svg xmlns="http://www.w3.org/2000/svg" xmlns:xlink="http://www.w3.org/1999/xlink" width="120px" height="120px" viewBox="0 0 120 120" version="1.1">
<g id="surface1">
<path style=" stroke:none;fill-rule:nonzero;fill:rgb(0%,0%,0%);fill-opacity:1;" d="M 52.757812 11.226562 C 52.265625 11.601562 51.9375 12.5625 50.625 17.835938 L 49.078125 23.976562 L 46.382812 25.078125 C 44.929688 25.664062 43.429688 26.296875 43.078125 26.460938 C 42.492188 26.765625 42.210938 26.625 37.148438 23.578125 C 31.640625 20.273438 31.078125 20.039062 29.8125 20.71875 C 29.0625 21.117188 21.023438 29.203125 20.648438 29.929688 C 20.507812 30.210938 20.390625 30.703125 20.390625 31.007812 C 20.390625 31.359375 21.773438 33.890625 23.625 36.960938 L 26.859375 42.304688 L 26.085938 43.945312 C 25.664062 44.835938 25.078125 46.3125 24.796875 47.203125 C 24.445312 48.257812 24.09375 48.867188 23.789062 49.007812 C 23.53125 49.125 20.90625 49.804688 17.953125 50.507812 C 15.023438 51.234375 12.328125 51.960938 11.976562 52.148438 C 10.851562 52.710938 10.78125 53.203125 10.78125 60.117188 L 10.78125 66.515625 L 11.367188 67.21875 C 11.90625 67.851562 12.445312 68.039062 17.859375 69.375 C 21.117188 70.171875 23.90625 70.96875 24.046875 71.109375 C 24.1875 71.25 24.539062 72.046875 24.84375 72.890625 C 25.148438 73.734375 25.734375 75.117188 26.15625 75.960938 L 26.929688 77.507812 L 23.648438 82.875 C 20.625 87.84375 20.390625 88.3125 20.484375 89.179688 C 20.578125 90 21.023438 90.515625 25.359375 94.851562 C 29.695312 99.164062 30.210938 99.609375 30.9375 99.609375 C 31.523438 99.609375 32.671875 99.023438 35.367188 97.40625 C 37.382812 96.1875 39.796875 94.710938 40.757812 94.148438 L 42.515625 93.09375 L 44.039062 93.84375 C 44.882812 94.265625 46.265625 94.851562 47.109375 95.15625 C 47.953125 95.460938 48.75 95.8125 48.890625 95.953125 C 49.03125 96.09375 49.828125 98.882812 50.625 102.140625 C 51.960938 107.554688 52.148438 108.09375 52.78125 108.632812 L 53.484375 109.21875 L 59.90625 109.21875 C 66.703125 109.21875 67.40625 109.125 67.875 108.117188 C 67.96875 107.882812 68.742188 105.023438 69.585938 101.742188 L 71.132812 95.789062 L 72.65625 95.25 C 73.5 94.96875 74.976562 94.382812 75.9375 93.9375 L 77.695312 93.140625 L 83.039062 96.375 C 86.085938 98.203125 88.664062 99.609375 88.96875 99.609375 C 90.023438 99.609375 90.773438 99 95.226562 94.5 C 99.492188 90.1875 99.609375 90.046875 99.609375 89.109375 C 99.609375 88.289062 99.140625 87.375 96.421875 82.851562 L 93.210938 77.554688 L 94.054688 75.75 C 94.523438 74.765625 95.132812 73.265625 95.4375 72.445312 L 95.976562 70.96875 L 101.929688 69.46875 C 105.1875 68.648438 108.046875 67.851562 108.257812 67.6875 C 109.195312 66.9375 109.195312 66.84375 109.21875 60.164062 C 109.21875 53.296875 109.125 52.59375 108.117188 52.125 C 107.882812 52.03125 105.023438 51.257812 101.742188 50.414062 L 95.8125 48.867188 L 95.15625 47.109375 C 94.804688 46.148438 94.21875 44.671875 93.820312 43.828125 L 93.140625 42.304688 L 96.375 36.960938 C 98.203125 33.914062 99.609375 31.335938 99.609375 31.03125 C 99.609375 29.976562 99 29.226562 94.5 24.773438 C 90.1875 20.507812 90.046875 20.390625 89.109375 20.390625 C 88.289062 20.390625 87.375 20.859375 82.851562 23.578125 L 77.554688 26.789062 L 75.75 25.945312 C 74.765625 25.476562 73.265625 24.867188 72.445312 24.5625 L 70.921875 24.023438 L 69.398438 17.976562 C 68.179688 13.21875 67.734375 11.789062 67.289062 11.34375 L 66.75 10.78125 L 60.023438 10.78125 C 53.835938 10.78125 53.273438 10.828125 52.757812 11.226562 Z M 64.195312 16.335938 C 64.335938 16.828125 64.96875 19.429688 65.648438 22.101562 C 66.304688 24.796875 67.03125 27.1875 67.242188 27.445312 C 67.453125 27.679688 68.789062 28.3125 70.195312 28.804688 C 71.625 29.296875 73.78125 30.1875 75 30.796875 C 76.546875 31.570312 77.414062 31.875 77.835938 31.78125 C 78.164062 31.710938 80.71875 30.304688 83.507812 28.640625 L 88.546875 25.617188 L 91.40625 28.476562 L 94.265625 31.359375 L 91.195312 36.492188 C 89.25 39.75 88.125 41.835938 88.125 42.257812 C 88.125 42.609375 88.640625 43.921875 89.273438 45.1875 C 89.90625 46.429688 90.75 48.539062 91.171875 49.851562 C 91.59375 51.164062 92.132812 52.429688 92.367188 52.640625 C 92.601562 52.851562 95.34375 53.648438 98.601562 54.46875 L 104.414062 55.921875 L 104.414062 64.078125 L 98.578125 65.53125 C 94.710938 66.492188 92.601562 67.125 92.34375 67.429688 C 92.109375 67.664062 91.59375 68.859375 91.171875 70.078125 C 90.773438 71.296875 89.929688 73.40625 89.273438 74.742188 C 88.640625 76.078125 88.125 77.4375 88.125 77.789062 C 88.125 78.140625 89.367188 80.4375 91.195312 83.507812 L 94.265625 88.640625 L 91.5 91.429688 C 89.976562 92.976562 88.617188 94.21875 88.5 94.21875 C 88.382812 94.21875 86.085938 92.90625 83.390625 91.289062 C 80.695312 89.671875 78.234375 88.289062 77.90625 88.21875 C 77.484375 88.101562 76.617188 88.429688 74.695312 89.367188 C 73.265625 90.09375 71.132812 90.960938 69.960938 91.3125 C 68.8125 91.664062 67.640625 92.179688 67.359375 92.460938 C 67.03125 92.8125 66.539062 94.335938 65.648438 97.851562 C 64.992188 100.570312 64.335938 103.171875 64.195312 103.640625 L 63.960938 104.53125 L 55.828125 104.53125 L 54.375 98.695312 C 53.273438 94.21875 52.804688 92.742188 52.40625 92.390625 C 52.148438 92.132812 51.023438 91.640625 49.921875 91.3125 C 48.820312 90.960938 46.710938 90.09375 45.234375 89.390625 C 43.335938 88.476562 42.351562 88.125 41.929688 88.21875 C 41.601562 88.289062 39.046875 89.695312 36.28125 91.359375 L 31.21875 94.40625 L 28.382812 91.546875 L 25.523438 88.6875 L 28.570312 83.554688 C 30.609375 80.179688 31.640625 78.234375 31.640625 77.789062 C 31.640625 77.414062 31.078125 75.914062 30.375 74.460938 C 29.671875 73.03125 28.828125 70.921875 28.5 69.820312 C 28.171875 68.71875 27.703125 67.640625 27.445312 67.40625 C 27.164062 67.148438 24.65625 66.398438 21.164062 65.53125 L 15.351562 64.054688 L 15.351562 55.945312 L 21.164062 54.46875 C 24.515625 53.625 27.164062 52.851562 27.421875 52.617188 C 27.679688 52.382812 28.195312 51.1875 28.617188 49.945312 C 29.015625 48.703125 29.859375 46.640625 30.492188 45.328125 C 31.125 44.039062 31.640625 42.65625 31.640625 42.257812 C 31.640625 41.765625 30.703125 39.984375 28.570312 36.445312 L 25.523438 31.3125 L 28.382812 28.453125 L 31.21875 25.59375 L 36.28125 28.640625 C 39.046875 30.304688 41.601562 31.710938 41.929688 31.78125 C 42.375 31.875 43.21875 31.570312 44.882812 30.726562 C 46.171875 30.070312 48.28125 29.203125 49.570312 28.804688 C 50.859375 28.382812 52.148438 27.84375 52.40625 27.609375 C 52.804688 27.257812 53.25 25.78125 54.375 21.304688 L 55.828125 15.46875 L 63.960938 15.46875 Z M 64.195312 16.335938 "/>
<path style=" stroke:none;fill-rule:nonzero;fill:rgb(0%,0%,0%);fill-opacity:1;" d="M 57.140625 40.3125 C 49.289062 41.554688 43.007812 47.085938 40.757812 54.75 C 40.101562 57.023438 39.914062 61.195312 40.382812 63.632812 C 41.929688 71.742188 48.070312 77.929688 56.226562 79.59375 C 58.804688 80.109375 62.882812 79.945312 65.34375 79.242188 C 72 77.320312 77.507812 71.742188 79.335938 65.039062 C 79.945312 62.8125 80.0625 58.59375 79.59375 56.226562 C 78.070312 48.703125 72.328125 42.65625 64.921875 40.757812 C 62.859375 40.21875 59.0625 40.007812 57.140625 40.3125 Z M 63.984375 45.351562 C 66.539062 46.03125 68.648438 47.296875 70.6875 49.3125 C 72.75 51.398438 73.734375 52.945312 74.578125 55.429688 C 75.023438 56.8125 75.117188 57.539062 75.09375 60.117188 C 75.09375 62.648438 75 63.421875 74.554688 64.6875 C 73.78125 66.9375 72.375 69.164062 70.6875 70.828125 C 68.90625 72.585938 67.242188 73.640625 64.875 74.484375 C 63.351562 75.046875 62.835938 75.09375 60 75.09375 C 57.328125 75.09375 56.601562 75.023438 55.3125 74.554688 C 53.0625 73.78125 50.835938 72.375 49.171875 70.6875 C 46.335938 67.804688 45 64.734375 44.8125 60.703125 C 44.625 56.039062 45.914062 52.757812 49.195312 49.429688 C 50.859375 47.765625 51.5625 47.226562 53.203125 46.453125 C 54.304688 45.9375 55.78125 45.398438 56.484375 45.257812 C 57.1875 45.117188 57.984375 44.953125 58.242188 44.90625 C 59.0625 44.695312 62.648438 44.976562 63.984375 45.351562 Z M 63.984375 45.351562 "/>
</g>
</svg>
