<?xml version="1.0" encoding="UTF-8"?>
<svg xmlns="http://www.w3.org/2000/svg" xmlns:xlink="http://www.w3.org/1999/xlink" width="150px" height="250px" viewBox="0 0 150 250" version="1.1">
<g id="surface1">
<path style=" stroke:none;fill-rule:nonzero;fill:rgb(0%,0%,0%);fill-opacity:1;" d="M 65.949219 23.386719 C 65.332031 24.167969 64.921875 26.171875 63.28125 37.15625 L 61.347656 49.949219 L 57.980469 52.246094 C 56.164062 53.464844 54.289062 54.785156 53.847656 55.125 C 53.117188 55.761719 52.765625 55.46875 46.4375 49.121094 C 39.550781 42.234375 38.847656 41.746094 37.265625 43.164062 C 36.328125 43.992188 26.28125 60.839844 25.8125 62.351562 C 25.636719 62.9375 25.488281 63.964844 25.488281 64.597656 C 25.488281 65.332031 27.21875 70.605469 29.53125 77 L 33.574219 88.132812 L 32.609375 91.550781 C 32.082031 93.40625 31.347656 96.484375 30.996094 98.339844 C 30.558594 100.535156 30.117188 101.804688 29.738281 102.097656 C 29.414062 102.34375 26.132812 103.757812 22.441406 105.222656 C 18.78125 106.738281 15.410156 108.25 14.972656 108.640625 C 13.566406 109.8125 13.476562 110.839844 13.476562 125.242188 L 13.476562 138.574219 L 14.210938 140.039062 C 14.882812 141.355469 15.558594 141.746094 22.324219 144.53125 C 26.398438 146.191406 29.882812 147.851562 30.058594 148.144531 C 30.234375 148.4375 30.675781 150.097656 31.054688 151.855469 C 31.4375 153.613281 32.167969 156.492188 32.695312 158.25 L 33.664062 161.472656 L 29.5625 172.65625 C 25.78125 183.007812 25.488281 183.984375 25.605469 185.789062 C 25.722656 187.5 26.28125 188.574219 31.699219 197.605469 C 37.121094 206.589844 37.765625 207.519531 38.671875 207.519531 C 39.40625 207.519531 40.839844 206.296875 44.210938 202.929688 C 46.730469 200.390625 49.746094 197.3125 50.949219 196.140625 L 53.144531 193.945312 L 55.050781 195.507812 C 56.105469 196.386719 57.832031 197.605469 58.886719 198.242188 C 59.941406 198.875 60.9375 199.609375 61.113281 199.902344 C 61.289062 200.195312 62.285156 206.003906 63.28125 212.792969 C 64.953125 224.070312 65.1875 225.195312 65.976562 226.316406 L 66.855469 227.539062 L 74.882812 227.539062 C 83.378906 227.539062 84.257812 227.34375 84.84375 225.242188 C 84.960938 224.753906 85.929688 218.796875 86.984375 211.960938 L 88.917969 199.558594 L 90.820312 198.4375 C 91.875 197.851562 93.722656 196.628906 94.921875 195.703125 L 97.121094 194.042969 L 103.800781 200.78125 C 107.609375 204.589844 110.832031 207.519531 111.210938 207.519531 C 112.53125 207.519531 113.46875 206.25 119.035156 196.875 C 124.367188 187.890625 124.511719 187.597656 124.511719 185.644531 C 124.511719 183.933594 123.925781 182.03125 120.527344 172.605469 L 116.515625 161.570312 L 117.570312 157.8125 C 118.15625 155.761719 118.917969 152.636719 119.296875 150.925781 L 119.972656 147.851562 L 127.414062 144.726562 C 131.484375 143.015625 135.058594 141.355469 135.324219 141.015625 C 136.496094 139.453125 136.496094 139.257812 136.523438 125.339844 C 136.523438 111.035156 136.40625 109.570312 135.148438 108.59375 C 134.855469 108.398438 131.28125 106.785156 127.179688 105.027344 L 119.765625 101.804688 L 118.945312 98.144531 C 118.507812 96.140625 117.773438 93.066406 117.277344 91.308594 L 116.425781 88.132812 L 120.46875 77 C 122.753906 70.652344 124.511719 65.28125 124.511719 64.648438 C 124.511719 62.449219 123.75 60.886719 118.125 51.609375 C 112.734375 42.722656 112.558594 42.480469 111.386719 42.480469 C 110.363281 42.480469 109.21875 43.457031 103.566406 49.121094 L 96.945312 55.808594 L 94.6875 54.050781 C 93.457031 53.074219 91.582031 51.804688 90.558594 51.171875 L 88.652344 50.046875 L 86.75 37.449219 C 85.226562 27.539062 84.667969 24.558594 84.113281 23.632812 L 83.4375 22.460938 L 75.03125 22.460938 C 67.296875 22.460938 66.59375 22.558594 65.949219 23.386719 Z M 80.246094 34.03125 C 80.421875 35.058594 81.210938 40.476562 82.0625 46.042969 C 82.882812 51.660156 83.789062 56.640625 84.054688 57.175781 C 84.316406 57.664062 85.988281 58.984375 87.746094 60.007812 C 89.53125 61.035156 92.226562 62.890625 93.75 64.160156 C 95.683594 65.769531 96.769531 66.40625 97.296875 66.210938 C 97.707031 66.0625 100.898438 63.132812 104.386719 59.667969 L 110.683594 53.367188 L 114.257812 59.324219 L 117.832031 65.332031 L 113.996094 76.023438 C 111.5625 82.8125 110.15625 87.15625 110.15625 88.035156 C 110.15625 88.769531 110.800781 91.503906 111.59375 94.140625 C 112.382812 96.726562 113.4375 101.121094 113.964844 103.855469 C 114.492188 106.589844 115.167969 109.226562 115.460938 109.667969 C 115.753906 110.105469 119.179688 111.765625 123.253906 113.476562 L 130.519531 116.503906 L 130.519531 133.496094 L 123.222656 136.523438 C 118.390625 138.523438 115.753906 139.84375 115.429688 140.476562 C 115.136719 140.964844 114.492188 143.457031 113.964844 145.996094 C 113.46875 148.535156 112.414062 152.929688 111.59375 155.710938 C 110.800781 158.496094 110.15625 161.328125 110.15625 162.058594 C 110.15625 162.792969 111.710938 167.578125 113.996094 173.972656 L 117.832031 184.667969 L 114.375 190.476562 C 112.472656 193.699219 110.773438 196.289062 110.625 196.289062 C 110.480469 196.289062 107.609375 193.554688 104.238281 190.183594 C 100.871094 186.816406 97.792969 183.933594 97.382812 183.789062 C 96.855469 183.542969 95.773438 184.226562 93.371094 186.179688 C 91.582031 187.695312 88.917969 189.5 87.453125 190.234375 C 86.015625 190.964844 84.550781 192.039062 84.199219 192.625 C 83.789062 193.359375 83.175781 196.53125 82.0625 203.855469 C 81.242188 209.519531 80.421875 214.941406 80.246094 215.917969 L 79.953125 217.773438 L 69.785156 217.773438 L 67.96875 205.613281 C 66.59375 196.289062 66.007812 193.210938 65.507812 192.480469 C 65.1875 191.941406 63.78125 190.917969 62.402344 190.234375 C 61.027344 189.5 58.390625 187.695312 56.542969 186.230469 C 54.171875 184.324219 52.941406 183.59375 52.414062 183.789062 C 52.003906 183.933594 48.808594 186.863281 45.351562 190.332031 L 39.023438 196.679688 L 35.480469 190.722656 L 31.90625 184.765625 L 35.714844 174.070312 C 38.261719 167.039062 39.550781 162.988281 39.550781 162.058594 C 39.550781 161.277344 38.847656 158.152344 37.96875 155.125 C 37.089844 152.148438 36.035156 147.753906 35.625 145.457031 C 35.214844 143.164062 34.628906 140.917969 34.308594 140.429688 C 33.957031 139.890625 30.820312 138.328125 26.457031 136.523438 L 19.191406 133.445312 L 19.191406 116.550781 L 26.457031 113.476562 C 30.644531 111.71875 33.957031 110.105469 34.277344 109.617188 C 34.601562 109.128906 35.246094 106.640625 35.773438 104.050781 C 36.269531 101.464844 37.324219 97.167969 38.117188 94.433594 C 38.90625 91.746094 39.550781 88.867188 39.550781 88.035156 C 39.550781 87.011719 38.378906 83.300781 35.714844 75.925781 L 31.90625 65.234375 L 35.480469 59.277344 L 39.023438 53.320312 L 45.351562 59.667969 C 48.808594 63.132812 52.003906 66.0625 52.414062 66.210938 C 52.96875 66.40625 54.023438 65.769531 56.105469 64.011719 C 57.714844 62.644531 60.351562 60.839844 61.964844 60.007812 C 63.574219 59.128906 65.1875 58.007812 65.507812 57.519531 C 66.007812 56.785156 66.5625 53.710938 67.96875 44.382812 L 69.785156 32.226562 L 79.953125 32.226562 Z M 80.246094 34.03125 "/>
<path style=" stroke:none;fill-rule:nonzero;fill:rgb(0%,0%,0%);fill-opacity:1;" d="M 71.425781 83.984375 C 61.613281 86.570312 53.761719 98.09375 50.949219 114.0625 C 50.128906 118.796875 49.894531 127.488281 50.480469 132.566406 C 52.414062 149.460938 60.089844 162.351562 70.285156 165.820312 C 73.507812 166.894531 78.605469 166.550781 81.679688 165.085938 C 90 161.082031 96.886719 149.460938 99.171875 135.496094 C 99.933594 130.859375 100.078125 122.070312 99.492188 117.136719 C 97.589844 101.464844 90.410156 88.867188 81.152344 84.910156 C 78.574219 83.789062 73.828125 83.347656 71.425781 83.984375 Z M 79.980469 94.480469 C 83.175781 95.898438 85.8125 98.535156 88.359375 102.734375 C 90.9375 107.078125 92.167969 110.300781 93.222656 115.476562 C 93.78125 118.359375 93.898438 119.871094 93.867188 125.242188 C 93.867188 130.515625 93.75 132.128906 93.195312 134.765625 C 92.226562 139.453125 90.46875 144.089844 88.359375 147.558594 C 86.132812 151.21875 84.054688 153.417969 81.09375 155.175781 C 79.191406 156.347656 78.546875 156.445312 75 156.445312 C 71.660156 156.445312 70.753906 156.296875 69.140625 155.320312 C 66.328125 153.710938 63.546875 150.78125 61.464844 147.265625 C 57.921875 141.257812 56.25 134.863281 56.015625 126.464844 C 55.78125 116.746094 57.394531 109.910156 61.496094 102.976562 C 63.574219 99.511719 64.453125 98.386719 66.503906 96.777344 C 67.882812 95.703125 69.726562 94.578125 70.605469 94.285156 C 71.484375 93.992188 72.480469 93.652344 72.804688 93.554688 C 73.828125 93.113281 78.3125 93.699219 79.980469 94.480469 Z M 79.980469 94.480469 "/>
</g>
</svg>
